<svg xmlns="http://www.w3.org/2000/svg" width="600" height="600" viewBox="-49.4500 -52.5000 98.9000 115.0000"><path d="M-14 -45 Q0 -35 14 -45 L24 -32 L14 -14 Q18 19 43 45 Q0 60 -43 45 Q-18 19 -14 -14 L-24 -32Z" fill="#FBF6EF" stroke="#C9A57E" stroke-width="0.8" stroke-linecap="round" stroke-linejoin="round"/><path d="M-14 -45 Q0 -24 14 -45 M-14 -14 Q0 -8 14 -14 M-12 -6 Q-15 21 -29 44 M0 -7 L0 48 M12 -6 Q15 21 29 44" fill="none" stroke="#C9A57E" stroke-width="0.65" stroke-linecap="round" stroke-linejoin="round"/><g transform="translate(0 -11) rotate(0) scale(0.36)"><path d="M-4 -1 C-18 -20 -42 -22 -41 -7 C-40 9 -17 15 -4 4Z" fill="#FFB59C" stroke="#A25030" stroke-width="0.8" stroke-linecap="round" stroke-linejoin="round"/><path d="M4 -1 C18 -20 42 -22 41 -7 C40 9 17 15 4 4Z" fill="#FFB59C" stroke="#A25030" stroke-width="0.8" stroke-linecap="round" stroke-linejoin="round"/><path d="M-7 3 Q-9 25 -29 35 L-26 22 L-39 22 Q-19 13 -13 0Z" fill="#E7D8C3" stroke="#A25030" stroke-width="0.6" stroke-linecap="round" stroke-linejoin="round"/><path d="M7 3 Q9 25 29 35 L26 22 L39 22 Q19 13 13 0Z" fill="#E7D8C3" stroke="#A25030" stroke-width="0.6" stroke-linecap="round" stroke-linejoin="round"/><path d="M-8 -5 Q0 -10 8 -5 L7 7 Q0 11 -7 7Z" fill="#FFB59C" stroke="#A25030" stroke-width="0.65" stroke-linecap="round" stroke-linejoin="round"/><path d="M-12 -1 Q-29 -12 -35 -9 M12 -1 Q29 -12 35 -9 M-7 11 Q-12 23 -25 28 M7 11 Q12 23 25 28" fill="none" stroke="#A25030" stroke-width="0.45" stroke-linecap="round" stroke-linejoin="round"/></g><g transform="translate(-26 39) rotate(0) scale(0.13)"><g transform="translate(0 0) rotate(0) scale(1)"><g transform="translate(0 0) rotate(0) scale(1)"><ellipse cx="0" cy="-10" rx="3.6" ry="10" fill="#FFFDF8" stroke="#C9A57E" stroke-width="0.5"/></g><g transform="translate(0 0) rotate(30) scale(1)"><ellipse cx="0" cy="-10" rx="3.6" ry="10" fill="#FFFDF8" stroke="#C9A57E" stroke-width="0.5"/></g><g transform="translate(0 0) rotate(60) scale(1)"><ellipse cx="0" cy="-10" rx="3.6" ry="10" fill="#FFFDF8" stroke="#C9A57E" stroke-width="0.5"/></g><g transform="translate(0 0) rotate(90) scale(1)"><ellipse cx="0" cy="-10" rx="3.6" ry="10" fill="#FFFDF8" stroke="#C9A57E" stroke-width="0.5"/></g><g transform="translate(0 0) rotate(120) scale(1)"><ellipse cx="0" cy="-10" rx="3.6" ry="10" fill="#FFFDF8" stroke="#C9A57E" stroke-width="0.5"/></g><g transform="translate(0 0) rotate(150) scale(1)"><ellipse cx="0" cy="-10" rx="3.6" ry="10" fill="#FFFDF8" stroke="#C9A57E" stroke-width="0.5"/></g><g transform="translate(0 0) rotate(180) scale(1)"><ellipse cx="0" cy="-10" rx="3.6" ry="10" fill="#FFFDF8" stroke="#C9A57E" stroke-width="0.5"/></g><g transform="translate(0 0) rotate(210) scale(1)"><ellipse cx="0" cy="-10" rx="3.6" ry="10" fill="#FFFDF8" stroke="#C9A57E" stroke-width="0.5"/></g><g transform="translate(0 0) rotate(240) scale(1)"><ellipse cx="0" cy="-10" rx="3.6" ry="10" fill="#FFFDF8" stroke="#C9A57E" stroke-width="0.5"/></g><g transform="translate(0 0) rotate(270) scale(1)"><ellipse cx="0" cy="-10" rx="3.6" ry="10" fill="#FFFDF8" stroke="#C9A57E" stroke-width="0.5"/></g><g transform="translate(0 0) rotate(300) scale(1)"><ellipse cx="0" cy="-10" rx="3.6" ry="10" fill="#FFFDF8" stroke="#C9A57E" stroke-width="0.5"/></g><g transform="translate(0 0) rotate(330) scale(1)"><ellipse cx="0" cy="-10" rx="3.6" ry="10" fill="#FFFDF8" stroke="#C9A57E" stroke-width="0.5"/></g><ellipse cx="0" cy="0" rx="4.6" ry="4.6" fill="#C9A57E" stroke="#A25030" stroke-width="0.5"/><ellipse cx="2.7" cy="0.0" rx="0.45" ry="0.45" fill="#A25030" stroke="none" stroke-width="0.9"/><ellipse cx="-1.990963031961363" cy="1.8237505874881077" rx="0.45" ry="0.45" fill="#A25030" stroke="none" stroke-width="0.9"/><ellipse cx="0.23624725528650528" cy="-2.68964444385677" rx="0.45" ry="0.45" fill="#A25030" stroke="none" stroke-width="0.9"/><ellipse cx="1.6425485492370893" cy="2.142903232392712" rx="0.45" ry="0.45" fill="#A25030" stroke="none" stroke-width="0.9"/><ellipse cx="-2.658657210644143" cy="-0.4706823093020451" rx="0.45" ry="0.45" fill="#A25030" stroke="none" stroke-width="0.9"/><ellipse cx="2.278405688577729" cy="-1.4487468786011743" rx="0.45" ry="0.45" fill="#A25030" stroke="none" stroke-width="0.9"/><ellipse cx="-0.7015068617771362" cy="2.6072759966830508" rx="0.45" ry="0.45" fill="#A25030" stroke="none" stroke-width="0.9"/><ellipse cx="-1.243832186010679" cy="-2.3964309906700625" rx="0.45" ry="0.45" fill="#A25030" stroke="none" stroke-width="0.9"/><ellipse cx="2.5358949360815513" cy="0.9269503078137176" rx="0.45" ry="0.45" fill="#A25030" stroke="none" stroke-width="0.9"/></g></g><g transform="translate(-13 39) rotate(0) scale(0.13)"><g transform="translate(0 0) rotate(0) scale(1)"><g transform="translate(0 0) rotate(0) scale(1)"><ellipse cx="0" cy="-10" rx="3.6" ry="10" fill="#FFFDF8" stroke="#C9A57E" stroke-width="0.5"/></g><g transform="translate(0 0) rotate(30) scale(1)"><ellipse cx="0" cy="-10" rx="3.6" ry="10" fill="#FFFDF8" stroke="#C9A57E" stroke-width="0.5"/></g><g transform="translate(0 0) rotate(60) scale(1)"><ellipse cx="0" cy="-10" rx="3.6" ry="10" fill="#FFFDF8" stroke="#C9A57E" stroke-width="0.5"/></g><g transform="translate(0 0) rotate(90) scale(1)"><ellipse cx="0" cy="-10" rx="3.6" ry="10" fill="#FFFDF8" stroke="#C9A57E" stroke-width="0.5"/></g><g transform="translate(0 0) rotate(120) scale(1)"><ellipse cx="0" cy="-10" rx="3.6" ry="10" fill="#FFFDF8" stroke="#C9A57E" stroke-width="0.5"/></g><g transform="translate(0 0) rotate(150) scale(1)"><ellipse cx="0" cy="-10" rx="3.6" ry="10" fill="#FFFDF8" stroke="#C9A57E" stroke-width="0.5"/></g><g transform="translate(0 0) rotate(180) scale(1)"><ellipse cx="0" cy="-10" rx="3.6" ry="10" fill="#FFFDF8" stroke="#C9A57E" stroke-width="0.5"/></g><g transform="translate(0 0) rotate(210) scale(1)"><ellipse cx="0" cy="-10" rx="3.6" ry="10" fill="#FFFDF8" stroke="#C9A57E" stroke-width="0.5"/></g><g transform="translate(0 0) rotate(240) scale(1)"><ellipse cx="0" cy="-10" rx="3.6" ry="10" fill="#FFFDF8" stroke="#C9A57E" stroke-width="0.5"/></g><g transform="translate(0 0) rotate(270) scale(1)"><ellipse cx="0" cy="-10" rx="3.6" ry="10" fill="#FFFDF8" stroke="#C9A57E" stroke-width="0.5"/></g><g transform="translate(0 0) rotate(300) scale(1)"><ellipse cx="0" cy="-10" rx="3.6" ry="10" fill="#FFFDF8" stroke="#C9A57E" stroke-width="0.5"/></g><g transform="translate(0 0) rotate(330) scale(1)"><ellipse cx="0" cy="-10" rx="3.6" ry="10" fill="#FFFDF8" stroke="#C9A57E" stroke-width="0.5"/></g><ellipse cx="0" cy="0" rx="4.6" ry="4.6" fill="#C9A57E" stroke="#A25030" stroke-width="0.5"/><ellipse cx="2.7" cy="0.0" rx="0.45" ry="0.45" fill="#A25030" stroke="none" stroke-width="0.9"/><ellipse cx="-1.990963031961363" cy="1.8237505874881077" rx="0.45" ry="0.45" fill="#A25030" stroke="none" stroke-width="0.9"/><ellipse cx="0.23624725528650528" cy="-2.68964444385677" rx="0.45" ry="0.45" fill="#A25030" stroke="none" stroke-width="0.9"/><ellipse cx="1.6425485492370893" cy="2.142903232392712" rx="0.45" ry="0.45" fill="#A25030" stroke="none" stroke-width="0.9"/><ellipse cx="-2.658657210644143" cy="-0.4706823093020451" rx="0.45" ry="0.45" fill="#A25030" stroke="none" stroke-width="0.9"/><ellipse cx="2.278405688577729" cy="-1.4487468786011743" rx="0.45" ry="0.45" fill="#A25030" stroke="none" stroke-width="0.9"/><ellipse cx="-0.7015068617771362" cy="2.6072759966830508" rx="0.45" ry="0.45" fill="#A25030" stroke="none" stroke-width="0.9"/><ellipse cx="-1.243832186010679" cy="-2.3964309906700625" rx="0.45" ry="0.45" fill="#A25030" stroke="none" stroke-width="0.9"/><ellipse cx="2.5358949360815513" cy="0.9269503078137176" rx="0.45" ry="0.45" fill="#A25030" stroke="none" stroke-width="0.9"/></g></g><g transform="translate(0 39) rotate(0) scale(0.13)"><g transform="translate(0 0) rotate(0) scale(1)"><g transform="translate(0 0) rotate(0) scale(1)"><ellipse cx="0" cy="-10" rx="3.6" ry="10" fill="#FFFDF8" stroke="#C9A57E" stroke-width="0.5"/></g><g transform="translate(0 0) rotate(30) scale(1)"><ellipse cx="0" cy="-10" rx="3.6" ry="10" fill="#FFFDF8" stroke="#C9A57E" stroke-width="0.5"/></g><g transform="translate(0 0) rotate(60) scale(1)"><ellipse cx="0" cy="-10" rx="3.6" ry="10" fill="#FFFDF8" stroke="#C9A57E" stroke-width="0.5"/></g><g transform="translate(0 0) rotate(90) scale(1)"><ellipse cx="0" cy="-10" rx="3.6" ry="10" fill="#FFFDF8" stroke="#C9A57E" stroke-width="0.5"/></g><g transform="translate(0 0) rotate(120) scale(1)"><ellipse cx="0" cy="-10" rx="3.6" ry="10" fill="#FFFDF8" stroke="#C9A57E" stroke-width="0.5"/></g><g transform="translate(0 0) rotate(150) scale(1)"><ellipse cx="0" cy="-10" rx="3.6" ry="10" fill="#FFFDF8" stroke="#C9A57E" stroke-width="0.5"/></g><g transform="translate(0 0) rotate(180) scale(1)"><ellipse cx="0" cy="-10" rx="3.6" ry="10" fill="#FFFDF8" stroke="#C9A57E" stroke-width="0.5"/></g><g transform="translate(0 0) rotate(210) scale(1)"><ellipse cx="0" cy="-10" rx="3.6" ry="10" fill="#FFFDF8" stroke="#C9A57E" stroke-width="0.5"/></g><g transform="translate(0 0) rotate(240) scale(1)"><ellipse cx="0" cy="-10" rx="3.6" ry="10" fill="#FFFDF8" stroke="#C9A57E" stroke-width="0.5"/></g><g transform="translate(0 0) rotate(270) scale(1)"><ellipse cx="0" cy="-10" rx="3.6" ry="10" fill="#FFFDF8" stroke="#C9A57E" stroke-width="0.5"/></g><g transform="translate(0 0) rotate(300) scale(1)"><ellipse cx="0" cy="-10" rx="3.6" ry="10" fill="#FFFDF8" stroke="#C9A57E" stroke-width="0.5"/></g><g transform="translate(0 0) rotate(330) scale(1)"><ellipse cx="0" cy="-10" rx="3.6" ry="10" fill="#FFFDF8" stroke="#C9A57E" stroke-width="0.5"/></g><ellipse cx="0" cy="0" rx="4.6" ry="4.6" fill="#C9A57E" stroke="#A25030" stroke-width="0.5"/><ellipse cx="2.7" cy="0.0" rx="0.45" ry="0.45" fill="#A25030" stroke="none" stroke-width="0.9"/><ellipse cx="-1.990963031961363" cy="1.8237505874881077" rx="0.45" ry="0.45" fill="#A25030" stroke="none" stroke-width="0.9"/><ellipse cx="0.23624725528650528" cy="-2.68964444385677" rx="0.45" ry="0.45" fill="#A25030" stroke="none" stroke-width="0.9"/><ellipse cx="1.6425485492370893" cy="2.142903232392712" rx="0.45" ry="0.45" fill="#A25030" stroke="none" stroke-width="0.9"/><ellipse cx="-2.658657210644143" cy="-0.4706823093020451" rx="0.45" ry="0.45" fill="#A25030" stroke="none" stroke-width="0.9"/><ellipse cx="2.278405688577729" cy="-1.4487468786011743" rx="0.45" ry="0.45" fill="#A25030" stroke="none" stroke-width="0.9"/><ellipse cx="-0.7015068617771362" cy="2.6072759966830508" rx="0.45" ry="0.45" fill="#A25030" stroke="none" stroke-width="0.9"/><ellipse cx="-1.243832186010679" cy="-2.3964309906700625" rx="0.45" ry="0.45" fill="#A25030" stroke="none" stroke-width="0.9"/><ellipse cx="2.5358949360815513" cy="0.9269503078137176" rx="0.45" ry="0.45" fill="#A25030" stroke="none" stroke-width="0.9"/></g></g><g transform="translate(13 39) rotate(0) scale(0.13)"><g transform="translate(0 0) rotate(0) scale(1)"><g transform="translate(0 0) rotate(0) scale(1)"><ellipse cx="0" cy="-10" rx="3.6" ry="10" fill="#FFFDF8" stroke="#C9A57E" stroke-width="0.5"/></g><g transform="translate(0 0) rotate(30) scale(1)"><ellipse cx="0" cy="-10" rx="3.6" ry="10" fill="#FFFDF8" stroke="#C9A57E" stroke-width="0.5"/></g><g transform="translate(0 0) rotate(60) scale(1)"><ellipse cx="0" cy="-10" rx="3.6" ry="10" fill="#FFFDF8" stroke="#C9A57E" stroke-width="0.5"/></g><g transform="translate(0 0) rotate(90) scale(1)"><ellipse cx="0" cy="-10" rx="3.6" ry="10" fill="#FFFDF8" stroke="#C9A57E" stroke-width="0.5"/></g><g transform="translate(0 0) rotate(120) scale(1)"><ellipse cx="0" cy="-10" rx="3.6" ry="10" fill="#FFFDF8" stroke="#C9A57E" stroke-width="0.5"/></g><g transform="translate(0 0) rotate(150) scale(1)"><ellipse cx="0" cy="-10" rx="3.6" ry="10" fill="#FFFDF8" stroke="#C9A57E" stroke-width="0.5"/></g><g transform="translate(0 0) rotate(180) scale(1)"><ellipse cx="0" cy="-10" rx="3.6" ry="10" fill="#FFFDF8" stroke="#C9A57E" stroke-width="0.5"/></g><g transform="translate(0 0) rotate(210) scale(1)"><ellipse cx="0" cy="-10" rx="3.6" ry="10" fill="#FFFDF8" stroke="#C9A57E" stroke-width="0.5"/></g><g transform="translate(0 0) rotate(240) scale(1)"><ellipse cx="0" cy="-10" rx="3.6" ry="10" fill="#FFFDF8" stroke="#C9A57E" stroke-width="0.5"/></g><g transform="translate(0 0) rotate(270) scale(1)"><ellipse cx="0" cy="-10" rx="3.6" ry="10" fill="#FFFDF8" stroke="#C9A57E" stroke-width="0.5"/></g><g transform="translate(0 0) rotate(300) scale(1)"><ellipse cx="0" cy="-10" rx="3.6" ry="10" fill="#FFFDF8" stroke="#C9A57E" stroke-width="0.5"/></g><g transform="translate(0 0) rotate(330) scale(1)"><ellipse cx="0" cy="-10" rx="3.6" ry="10" fill="#FFFDF8" stroke="#C9A57E" stroke-width="0.5"/></g><ellipse cx="0" cy="0" rx="4.6" ry="4.6" fill="#C9A57E" stroke="#A25030" stroke-width="0.5"/><ellipse cx="2.7" cy="0.0" rx="0.45" ry="0.45" fill="#A25030" stroke="none" stroke-width="0.9"/><ellipse cx="-1.990963031961363" cy="1.8237505874881077" rx="0.45" ry="0.45" fill="#A25030" stroke="none" stroke-width="0.9"/><ellipse cx="0.23624725528650528" cy="-2.68964444385677" rx="0.45" ry="0.45" fill="#A25030" stroke="none" stroke-width="0.9"/><ellipse cx="1.6425485492370893" cy="2.142903232392712" rx="0.45" ry="0.45" fill="#A25030" stroke="none" stroke-width="0.9"/><ellipse cx="-2.658657210644143" cy="-0.4706823093020451" rx="0.45" ry="0.45" fill="#A25030" stroke="none" stroke-width="0.9"/><ellipse cx="2.278405688577729" cy="-1.4487468786011743" rx="0.45" ry="0.45" fill="#A25030" stroke="none" stroke-width="0.9"/><ellipse cx="-0.7015068617771362" cy="2.6072759966830508" rx="0.45" ry="0.45" fill="#A25030" stroke="none" stroke-width="0.9"/><ellipse cx="-1.243832186010679" cy="-2.3964309906700625" rx="0.45" ry="0.45" fill="#A25030" stroke="none" stroke-width="0.9"/><ellipse cx="2.5358949360815513" cy="0.9269503078137176" rx="0.45" ry="0.45" fill="#A25030" stroke="none" stroke-width="0.9"/></g></g><g transform="translate(26 39) rotate(0) scale(0.13)"><g transform="translate(0 0) rotate(0) scale(1)"><g transform="translate(0 0) rotate(0) scale(1)"><ellipse cx="0" cy="-10" rx="3.6" ry="10" fill="#FFFDF8" stroke="#C9A57E" stroke-width="0.5"/></g><g transform="translate(0 0) rotate(30) scale(1)"><ellipse cx="0" cy="-10" rx="3.6" ry="10" fill="#FFFDF8" stroke="#C9A57E" stroke-width="0.5"/></g><g transform="translate(0 0) rotate(60) scale(1)"><ellipse cx="0" cy="-10" rx="3.6" ry="10" fill="#FFFDF8" stroke="#C9A57E" stroke-width="0.5"/></g><g transform="translate(0 0) rotate(90) scale(1)"><ellipse cx="0" cy="-10" rx="3.6" ry="10" fill="#FFFDF8" stroke="#C9A57E" stroke-width="0.5"/></g><g transform="translate(0 0) rotate(120) scale(1)"><ellipse cx="0" cy="-10" rx="3.6" ry="10" fill="#FFFDF8" stroke="#C9A57E" stroke-width="0.5"/></g><g transform="translate(0 0) rotate(150) scale(1)"><ellipse cx="0" cy="-10" rx="3.6" ry="10" fill="#FFFDF8" stroke="#C9A57E" stroke-width="0.5"/></g><g transform="translate(0 0) rotate(180) scale(1)"><ellipse cx="0" cy="-10" rx="3.6" ry="10" fill="#FFFDF8" stroke="#C9A57E" stroke-width="0.5"/></g><g transform="translate(0 0) rotate(210) scale(1)"><ellipse cx="0" cy="-10" rx="3.6" ry="10" fill="#FFFDF8" stroke="#C9A57E" stroke-width="0.5"/></g><g transform="translate(0 0) rotate(240) scale(1)"><ellipse cx="0" cy="-10" rx="3.6" ry="10" fill="#FFFDF8" stroke="#C9A57E" stroke-width="0.5"/></g><g transform="translate(0 0) rotate(270) scale(1)"><ellipse cx="0" cy="-10" rx="3.6" ry="10" fill="#FFFDF8" stroke="#C9A57E" stroke-width="0.5"/></g><g transform="translate(0 0) rotate(300) scale(1)"><ellipse cx="0" cy="-10" rx="3.6" ry="10" fill="#FFFDF8" stroke="#C9A57E" stroke-width="0.5"/></g><g transform="translate(0 0) rotate(330) scale(1)"><ellipse cx="0" cy="-10" rx="3.6" ry="10" fill="#FFFDF8" stroke="#C9A57E" stroke-width="0.5"/></g><ellipse cx="0" cy="0" rx="4.6" ry="4.6" fill="#C9A57E" stroke="#A25030" stroke-width="0.5"/><ellipse cx="2.7" cy="0.0" rx="0.45" ry="0.45" fill="#A25030" stroke="none" stroke-width="0.9"/><ellipse cx="-1.990963031961363" cy="1.8237505874881077" rx="0.45" ry="0.45" fill="#A25030" stroke="none" stroke-width="0.9"/><ellipse cx="0.23624725528650528" cy="-2.68964444385677" rx="0.45" ry="0.45" fill="#A25030" stroke="none" stroke-width="0.9"/><ellipse cx="1.6425485492370893" cy="2.142903232392712" rx="0.45" ry="0.45" fill="#A25030" stroke="none" stroke-width="0.9"/><ellipse cx="-2.658657210644143" cy="-0.4706823093020451" rx="0.45" ry="0.45" fill="#A25030" stroke="none" stroke-width="0.9"/><ellipse cx="2.278405688577729" cy="-1.4487468786011743" rx="0.45" ry="0.45" fill="#A25030" stroke="none" stroke-width="0.9"/><ellipse cx="-0.7015068617771362" cy="2.6072759966830508" rx="0.45" ry="0.45" fill="#A25030" stroke="none" stroke-width="0.9"/><ellipse cx="-1.243832186010679" cy="-2.3964309906700625" rx="0.45" ry="0.45" fill="#A25030" stroke="none" stroke-width="0.9"/><ellipse cx="2.5358949360815513" cy="0.9269503078137176" rx="0.45" ry="0.45" fill="#A25030" stroke="none" stroke-width="0.9"/></g></g></svg>