<svg xmlns="http://www.w3.org/2000/svg" width="600" height="600" viewBox="-39.5752 -57.1957 72.7768 110.3333"><path d="M-6 -50 H6 V-25 H27 V-13 H6 V45 H-6 V-13 H-27 V-25 H-6Z" fill="#FBF6EF" stroke="#C9A57E" stroke-width="0.8" stroke-linecap="round" stroke-linejoin="round"/><g transform="translate(-11 32) rotate(-40) scale(0.7)"><path d="M0 26 C-12 2 3 -23 -5 -47" fill="none" stroke="#6E8C67" stroke-width="0.65" stroke-linecap="round" stroke-linejoin="round"/><g transform="translate(2 17) rotate(58) scale(0.43)"><path d="M0 0 C-12 -7 -13 -23 -7 -31 C5 -29 16 -12 0 0Z" fill="#E7D8C3" stroke="#6E8C67" stroke-width="0.55" stroke-linecap="round" stroke-linejoin="round"/><path d="M0 0 Q-6 -16 -7 -27" fill="none" stroke="#6E8C67" stroke-width="0.48" stroke-linecap="round" stroke-linejoin="round"/><path d="M-1.0 -6 Q-5 -9 -8.0 -9" fill="none" stroke="#6E8C67" stroke-width="0.3" stroke-linecap="round" stroke-linejoin="round"/><path d="M-2.5 -12 Q-7 -15 -9.4 -15" fill="none" stroke="#6E8C67" stroke-width="0.3" stroke-linecap="round" stroke-linejoin="round"/><path d="M-4.0 -18 Q-9 -21 -10.8 -21" fill="none" stroke="#6E8C67" stroke-width="0.3" stroke-linecap="round" stroke-linejoin="round"/></g><g transform="translate(-2 5) rotate(-58) scale(0.43)"><path d="M0 0 C-12 -7 -13 -23 -7 -31 C5 -29 16 -12 0 0Z" fill="#A8C5A2" stroke="#6E8C67" stroke-width="0.55" stroke-linecap="round" stroke-linejoin="round"/><path d="M0 0 Q-6 -16 -7 -27" fill="none" stroke="#6E8C67" stroke-width="0.48" stroke-linecap="round" stroke-linejoin="round"/><path d="M-1.0 -6 Q-5 -9 -8.0 -9" fill="none" stroke="#6E8C67" stroke-width="0.3" stroke-linecap="round" stroke-linejoin="round"/><path d="M-2.5 -12 Q-7 -15 -9.4 -15" fill="none" stroke="#6E8C67" stroke-width="0.3" stroke-linecap="round" stroke-linejoin="round"/><path d="M-4.0 -18 Q-9 -21 -10.8 -21" fill="none" stroke="#6E8C67" stroke-width="0.3" stroke-linecap="round" stroke-linejoin="round"/></g><g transform="translate(2 -7) rotate(58) scale(0.43)"><path d="M0 0 C-12 -7 -13 -23 -7 -31 C5 -29 16 -12 0 0Z" fill="#E7D8C3" stroke="#6E8C67" stroke-width="0.55" stroke-linecap="round" stroke-linejoin="round"/><path d="M0 0 Q-6 -16 -7 -27" fill="none" stroke="#6E8C67" stroke-width="0.48" stroke-linecap="round" stroke-linejoin="round"/><path d="M-1.0 -6 Q-5 -9 -8.0 -9" fill="none" stroke="#6E8C67" stroke-width="0.3" stroke-linecap="round" stroke-linejoin="round"/><path d="M-2.5 -12 Q-7 -15 -9.4 -15" fill="none" stroke="#6E8C67" stroke-width="0.3" stroke-linecap="round" stroke-linejoin="round"/><path d="M-4.0 -18 Q-9 -21 -10.8 -21" fill="none" stroke="#6E8C67" stroke-width="0.3" stroke-linecap="round" stroke-linejoin="round"/></g><g transform="translate(-2 -19) rotate(-58) scale(0.43)"><path d="M0 0 C-12 -7 -13 -23 -7 -31 C5 -29 16 -12 0 0Z" fill="#A8C5A2" stroke="#6E8C67" stroke-width="0.55" stroke-linecap="round" stroke-linejoin="round"/><path d="M0 0 Q-6 -16 -7 -27" fill="none" stroke="#6E8C67" stroke-width="0.48" stroke-linecap="round" stroke-linejoin="round"/><path d="M-1.0 -6 Q-5 -9 -8.0 -9" fill="none" stroke="#6E8C67" stroke-width="0.3" stroke-linecap="round" stroke-linejoin="round"/><path d="M-2.5 -12 Q-7 -15 -9.4 -15" fill="none" stroke="#6E8C67" stroke-width="0.3" stroke-linecap="round" stroke-linejoin="round"/><path d="M-4.0 -18 Q-9 -21 -10.8 -21" fill="none" stroke="#6E8C67" stroke-width="0.3" stroke-linecap="round" stroke-linejoin="round"/></g><g transform="translate(2 -31) rotate(58) scale(0.43)"><path d="M0 0 C-12 -7 -13 -23 -7 -31 C5 -29 16 -12 0 0Z" fill="#E7D8C3" stroke="#6E8C67" stroke-width="0.55" stroke-linecap="round" stroke-linejoin="round"/><path d="M0 0 Q-6 -16 -7 -27" fill="none" stroke="#6E8C67" stroke-width="0.48" stroke-linecap="round" stroke-linejoin="round"/><path d="M-1.0 -6 Q-5 -9 -8.0 -9" fill="none" stroke="#6E8C67" stroke-width="0.3" stroke-linecap="round" stroke-linejoin="round"/><path d="M-2.5 -12 Q-7 -15 -9.4 -15" fill="none" stroke="#6E8C67" stroke-width="0.3" stroke-linecap="round" stroke-linejoin="round"/><path d="M-4.0 -18 Q-9 -21 -10.8 -21" fill="none" stroke="#6E8C67" stroke-width="0.3" stroke-linecap="round" stroke-linejoin="round"/></g></g><g transform="translate(15 29) rotate(0) scale(0.48)"><g transform="translate(0 0) rotate(0.0) scale(1)"><path d="M-2 1 C-23 -1 -21 -21 -9 -22 C0 -25 13 -18 8 -8Z" fill="#FFB59C" stroke="#A25030" stroke-width="0.48" stroke-linecap="round" stroke-linejoin="round"/></g><g transform="translate(0 0) rotate(51.42857142857143) scale(1)"><path d="M-2 1 C-23 -1 -21 -21 -9 -22 C0 -25 13 -18 8 -8Z" fill="#FFB59C" stroke="#A25030" stroke-width="0.48" stroke-linecap="round" stroke-linejoin="round"/></g><g transform="translate(0 0) rotate(102.85714285714286) scale(1)"><path d="M-2 1 C-23 -1 -21 -21 -9 -22 C0 -25 13 -18 8 -8Z" fill="#FFB59C" stroke="#A25030" stroke-width="0.48" stroke-linecap="round" stroke-linejoin="round"/></g><g transform="translate(0 0) rotate(154.28571428571428) scale(1)"><path d="M-2 1 C-23 -1 -21 -21 -9 -22 C0 -25 13 -18 8 -8Z" fill="#FFB59C" stroke="#A25030" stroke-width="0.48" stroke-linecap="round" stroke-linejoin="round"/></g><g transform="translate(0 0) rotate(205.71428571428572) scale(1)"><path d="M-2 1 C-23 -1 -21 -21 -9 -22 C0 -25 13 -18 8 -8Z" fill="#FFB59C" stroke="#A25030" stroke-width="0.48" stroke-linecap="round" stroke-linejoin="round"/></g><g transform="translate(0 0) rotate(257.14285714285717) scale(1)"><path d="M-2 1 C-23 -1 -21 -21 -9 -22 C0 -25 13 -18 8 -8Z" fill="#FFB59C" stroke="#A25030" stroke-width="0.48" stroke-linecap="round" stroke-linejoin="round"/></g><g transform="translate(0 0) rotate(308.57142857142856) scale(1)"><path d="M-2 1 C-23 -1 -21 -21 -9 -22 C0 -25 13 -18 8 -8Z" fill="#FFB59C" stroke="#A25030" stroke-width="0.48" stroke-linecap="round" stroke-linejoin="round"/></g><path d="M-10 2 C-17 -13 5 -19 12 -6 C19 8 2 18 -10 8 C-15 3 -3 -6 4 -3 C12 1 4 8 0 4" fill="#E7D8C3" stroke="#A25030" stroke-width="0.65" stroke-linecap="round" stroke-linejoin="round"/></g></svg>