<svg xmlns="http://www.w3.org/2000/svg" width="600" height="600" viewBox="-43.7000 -65.6250 87.4000 132.2500"><ellipse cx="0" cy="-5" rx="38" ry="9" fill="#4A443D" stroke="#C9A57E" stroke-width="0.8"/><path d="M-38 -5 Q-28 35 0 35 Q28 35 38 -5Z" fill="#A8C5A2" stroke="#6E8C67" stroke-width="0.8" stroke-linecap="round" stroke-linejoin="round"/><path d="M-18 30 L-27 58" fill="none" stroke="#C9A57E" stroke-width="1.5" stroke-linecap="round" stroke-linejoin="round"/><path d="M18 30 L27 58" fill="none" stroke="#C9A57E" stroke-width="1.5" stroke-linecap="round" stroke-linejoin="round"/><path d="M-22 49 L22 49" fill="none" stroke="#C9A57E" stroke-width="1" stroke-linecap="round" stroke-linejoin="round"/><path d="M-25 -11 L-25 -1" fill="none" stroke="#E7D8C3" stroke-width="0.6" stroke-linecap="round" stroke-linejoin="round"/><path d="M-15 -11 L-15 -1" fill="none" stroke="#E7D8C3" stroke-width="0.6" stroke-linecap="round" stroke-linejoin="round"/><path d="M-5 -11 L-5 -1" fill="none" stroke="#E7D8C3" stroke-width="0.6" stroke-linecap="round" stroke-linejoin="round"/><path d="M5 -11 L5 -1" fill="none" stroke="#E7D8C3" stroke-width="0.6" stroke-linecap="round" stroke-linejoin="round"/><path d="M15 -11 L15 -1" fill="none" stroke="#E7D8C3" stroke-width="0.6" stroke-linecap="round" stroke-linejoin="round"/><path d="M25 -11 L25 -1" fill="none" stroke="#E7D8C3" stroke-width="0.6" stroke-linecap="round" stroke-linejoin="round"/><path d="M-13 -22 C-27 -35 -3 -39 -13 -54 M7 -23 C-7 -37 17 -42 7 -57" fill="none" stroke="#C9A57E" stroke-width="0.85" stroke-linecap="round" stroke-linejoin="round"/></svg>