<svg xmlns="http://www.w3.org/2000/svg" width="600" height="600" viewBox="-59.8000 -52.4500 119.6000 98.9000"><path d="M-24 -28 C-45 -30 -52 -8 -47 17 C-45 30 -35 36 -26 22 C-21 9 -23 -5 -16 -20Z" fill="#C9A57E" stroke="#4A443D" stroke-width="0.7" stroke-linecap="round" stroke-linejoin="round"/><path d="M24 -28 C45 -30 52 -8 47 17 C45 30 35 36 26 22 C21 9 23 -5 16 -20Z" fill="#C9A57E" stroke="#4A443D" stroke-width="0.7" stroke-linecap="round" stroke-linejoin="round"/><path d="M-27 -20 C-21 -42 -7 -45 0 -40 C9 -46 28 -35 31 -15 C35 -7 34 4 28 13 C26 33 13 40 0 39 C-17 39 -30 29 -31 12 C-38 -2 -34 -9 -27 -20Z" fill="#E7D8C3" stroke="#4A443D" stroke-width="0.8" stroke-linecap="round" stroke-linejoin="round"/><path d="M-25 -22 C-12 -39 -4 -31 -6 -12 C-8 2 -16 5 -27 1Z" fill="#C9A57E" stroke="none" stroke-width="0.9" stroke-linecap="round" stroke-linejoin="round"/><path d="M-18 15 C-15 1 -3 6 0 9 C5 2 18 4 20 17 C22 33 -18 34 -18 15Z" fill="#FFFDF8" stroke="#C9A57E" stroke-width="0.4" stroke-linecap="round" stroke-linejoin="round"/><path d="M-16 -4 Q-12 -7.2 -8 -4" fill="none" stroke="#4A443D" stroke-width="0.8" stroke-linecap="round" stroke-linejoin="round"/><ellipse cx="-12" cy="-4" rx="2.1" ry="2.5" fill="#4A443D" stroke="none" stroke-width="0.9"/><ellipse cx="-12.6" cy="-4.8" rx="0.65" ry="0.65" fill="#FFFDF8" stroke="none" stroke-width="0.9"/><path d="M8 -4 Q12 -7.2 16 -4" fill="none" stroke="#4A443D" stroke-width="0.8" stroke-linecap="round" stroke-linejoin="round"/><ellipse cx="12" cy="-4" rx="2.1" ry="2.5" fill="#4A443D" stroke="none" stroke-width="0.9"/><ellipse cx="11.4" cy="-4.8" rx="0.65" ry="0.65" fill="#FFFDF8" stroke="none" stroke-width="0.9"/><path d="M-6 11 C-8 6 7 6 6 11 Q4 17 0 17 Q-4 17 -6 11Z" fill="#4A443D" stroke="none" stroke-width="0.9" stroke-linecap="round" stroke-linejoin="round"/><path d="M0 17 L0 22 Q-6 29 -12 24 M0 22 Q6 29 12 24" fill="none" stroke="#4A443D" stroke-width="0.7" stroke-linecap="round" stroke-linejoin="round"/><path d="M-28 -20 Q-29 -16 -27 -13" fill="none" stroke="#A25030" stroke-width="0.35" stroke-linecap="round" stroke-linejoin="round"/><path d="M-30 -13 Q-31 -9 -29 -6" fill="none" stroke="#A25030" stroke-width="0.35" stroke-linecap="round" stroke-linejoin="round"/><path d="M27 -19 Q26 -15 28 -12" fill="none" stroke="#A25030" stroke-width="0.35" stroke-linecap="round" stroke-linejoin="round"/><path d="M30 -11 Q29 -7 31 -4" fill="none" stroke="#A25030" stroke-width="0.35" stroke-linecap="round" stroke-linejoin="round"/><path d="M-39 -4 Q-40 0 -38 3" fill="none" stroke="#A25030" stroke-width="0.35" stroke-linecap="round" stroke-linejoin="round"/><path d="M-40 4 Q-41 8 -39 11" fill="none" stroke="#A25030" stroke-width="0.35" stroke-linecap="round" stroke-linejoin="round"/><path d="M40 0 Q39 4 41 7" fill="none" stroke="#A25030" stroke-width="0.35" stroke-linecap="round" stroke-linejoin="round"/><path d="M39 8 Q38 12 40 15" fill="none" stroke="#A25030" stroke-width="0.35" stroke-linecap="round" stroke-linejoin="round"/><path d="M-5 -30 Q-3 -33 0 -30 M1 -33 Q4 -35 6 -30" fill="none" stroke="#C9A57E" stroke-width="0.45" stroke-linecap="round" stroke-linejoin="round"/></svg>