<svg xmlns="http://www.w3.org/2000/svg" width="600" height="600" viewBox="-56.3500 -47.1500 112.7000 94.3000"><path d="M0 41 C-25 25 -49 4 -43 -17 C-38 -40 -12 -41 0 -22 C12 -41 38 -40 43 -17 C49 4 25 25 0 41Z" fill="#FFB59C" stroke="#A25030" stroke-width="0.85" stroke-linecap="round" stroke-linejoin="round"/><path d="M-34 -13 C-32 -30 -15 -31 -8 -21" fill="none" stroke="#FFFDF8" stroke-width="1.7" stroke-linecap="round" stroke-linejoin="round"/><g transform="translate(0 -2) rotate(0) scale(0.65)"><path d="M0 -1 C-9 -3 -12 5 -18 10 C-25 19 -18 28 -10 25 Q0 20 10 25 C18 28 25 19 18 10 C12 5 9 -3 0 -1Z" fill="#C9A57E" stroke="#A25030" stroke-width="0.7" stroke-linecap="round" stroke-linejoin="round"/><g transform="translate(-22 -7) rotate(-30) scale(1)"><ellipse cx="0" cy="0" rx="5" ry="8" fill="#C9A57E" stroke="#A25030" stroke-width="0.6"/></g><g transform="translate(-9 -20) rotate(-12) scale(1)"><ellipse cx="0" cy="0" rx="5.5" ry="8.5" fill="#C9A57E" stroke="#A25030" stroke-width="0.6"/></g><g transform="translate(9 -20) rotate(12) scale(1)"><ellipse cx="0" cy="0" rx="5.5" ry="8.5" fill="#C9A57E" stroke="#A25030" stroke-width="0.6"/></g><g transform="translate(22 -7) rotate(30) scale(1)"><ellipse cx="0" cy="0" rx="5" ry="8" fill="#C9A57E" stroke="#A25030" stroke-width="0.6"/></g><path d="M-12 14 Q-6 7 -3 5" fill="none" stroke="#E7D8C3" stroke-width="1.1" stroke-linecap="round" stroke-linejoin="round"/></g></svg>