<svg xmlns="http://www.w3.org/2000/svg" width="600" height="600" viewBox="-39.1250 -38.1500 109.2500 94.3000"><ellipse cx="0" cy="0" rx="32" ry="32" fill="#A8C5A2" stroke="#6E8C67" stroke-width="0.7"/><path d="M-30 -27 Q-29 -18 18 11" fill="none" stroke="#6E8C67" stroke-width="0.6" stroke-linecap="round" stroke-linejoin="round"/><path d="M-28 -22 Q-22 -11 20 15" fill="none" stroke="#6E8C67" stroke-width="0.6" stroke-linecap="round" stroke-linejoin="round"/><path d="M-26 -17 Q-15 -4 22 19" fill="none" stroke="#6E8C67" stroke-width="0.6" stroke-linecap="round" stroke-linejoin="round"/><path d="M-24 -12 Q-8 3 24 23" fill="none" stroke="#6E8C67" stroke-width="0.6" stroke-linecap="round" stroke-linejoin="round"/><path d="M-22 -7 Q-1 10 26 27" fill="none" stroke="#6E8C67" stroke-width="0.6" stroke-linecap="round" stroke-linejoin="round"/><path d="M-15 -28 C-28 -7 -24 9 -13 28 M-3 -31 C-19 -6 -9 19 3 32 M10 -29 C-3 -11 9 8 26 18 M26 18 C49 22 46 50 63 32" fill="none" stroke="#6E8C67" stroke-width="0.65" stroke-linecap="round" stroke-linejoin="round"/></svg>