<svg xmlns="http://www.w3.org/2000/svg" width="300" height="296" viewBox="0 0 300 296" preserveAspectRatio="xMidYMid meet" role="img"><title>ic-escudo — Panda Mimo</title><desc>Arte vetorial independente, com curvas e gradientes. Exterior transparente.</desc><defs><linearGradient xmlns="http://www.w3.org/2000/svg" id="rim" x1="0" y1="0" x2="0" y2="1" gradientUnits="objectBoundingBox"><stop stop-color="#efaaa0" /><stop offset=".16" stop-color="#f8c9bb" /><stop offset=".56" stop-color="#f1b3a6" /><stop offset=".87" stop-color="#e89c93" /><stop offset="1" stop-color="#d6817d" /></linearGradient>
<linearGradient xmlns="http://www.w3.org/2000/svg" id="cream" x1="0" y1="0" x2=".6" y2="1"><stop stop-color="#fff8ee" /><stop offset=".5" stop-color="#fbf2e7" /><stop offset="1" stop-color="#fbece2" /></linearGradient>
<radialGradient xmlns="http://www.w3.org/2000/svg" id="button" cx=".4" cy=".25" r=".79"><stop stop-color="#ffa79c" /><stop offset=".52" stop-color="#f68c82" /><stop offset=".82" stop-color="#e87970" /><stop offset="1" stop-color="#bd504e" /></radialGradient>
<linearGradient xmlns="http://www.w3.org/2000/svg" id="pink" x1="0" y1="0" x2=".15" y2="1"><stop stop-color="#f9ada3" /><stop offset=".44" stop-color="#f4988e" /><stop offset=".8" stop-color="#ea887e" /><stop offset="1" stop-color="#da766e" /></linearGradient>
<linearGradient xmlns="http://www.w3.org/2000/svg" id="shine" x1="0" y1="0" x2="0" y2="1"><stop stop-color="#fff1e8" stop-opacity=".7" /><stop offset=".6" stop-color="#ffd1c1" stop-opacity=".04" /><stop offset="1" stop-color="#873e3d" stop-opacity=".3" /></linearGradient>
<linearGradient xmlns="http://www.w3.org/2000/svg" id="black" x1="0" y1="0" x2="0" y2="1"><stop stop-color="#191b16" /><stop offset=".55" stop-color="#070905" /><stop offset="1" stop-color="#11120e" /></linearGradient>
<linearGradient xmlns="http://www.w3.org/2000/svg" id="heartCream" x1="0" y1="0" x2=".2" y2="1"><stop stop-color="#fffaf0" /><stop offset="1" stop-color="#f8eade" /></linearGradient>
<linearGradient id="ribbonFace" x1="0" y1="0" x2="1" y2=".2"><stop stop-color="#da766e"/><stop offset=".18" stop-color="#f7a297"/><stop offset=".5" stop-color="#f9ada3"/><stop offset=".84" stop-color="#ed9187"/><stop offset="1" stop-color="#d7766e"/></linearGradient>
<linearGradient id="window" x1="0" y1="0" x2=".2" y2="1"><stop stop-color="#fffaf0"/><stop offset="1" stop-color="#ebc8bd"/></linearGradient>
<linearGradient id="banner" x1="0" y1="0" x2=".3" y2="1"><stop stop-color="#fbd0c1"/><stop offset=".52" stop-color="#fac5b7"/><stop offset="1" stop-color="#f3b3a6"/></linearGradient><linearGradient xmlns="http://www.w3.org/2000/svg" id="blackStroke" x1="0" y1="25" x2="0" y2="235" gradientUnits="userSpaceOnUse"><stop stop-color="#191b16" /><stop offset=".55" stop-color="#070905" /><stop offset="1" stop-color="#11120e" /></linearGradient>
<linearGradient xmlns="http://www.w3.org/2000/svg" id="pinkStroke" x1="0" y1="25" x2="0" y2="235" gradientUnits="userSpaceOnUse"><stop stop-color="#f9ada3" /><stop offset=".44" stop-color="#f4988e" /><stop offset=".8" stop-color="#ea887e" /><stop offset="1" stop-color="#da766e" /></linearGradient>
<linearGradient xmlns="http://www.w3.org/2000/svg" id="pinkText" x1="0" y1="1" x2=".15" y2="0"><stop stop-color="#f9ada3" /><stop offset=".44" stop-color="#f4988e" /><stop offset=".8" stop-color="#ea887e" /><stop offset="1" stop-color="#da766e" /></linearGradient>
<linearGradient xmlns="http://www.w3.org/2000/svg" id="blackText" x1="0" y1="1" x2="0" y2="0"><stop stop-color="#191b16" /><stop offset=".55" stop-color="#070905" /><stop offset="1" stop-color="#11120e" /></linearGradient>
<linearGradient xmlns="http://www.w3.org/2000/svg" id="shineText" x1="0" y1="1" x2="0" y2="0"><stop stop-color="#fff1e8" stop-opacity=".7" /><stop offset=".6" stop-color="#ffd1c1" stop-opacity=".04" /><stop offset="1" stop-color="#873e3d" stop-opacity=".3" /></linearGradient>
</defs><g id="medalhao"><path d="M5.496062992125985 148.0 A144.50393700787401 144.50393700787401 0 1 0 294.503937007874 148.0 A144.50393700787401 144.50393700787401 0 1 0 5.496062992125985 148.0Z" fill="url(#rim)" stroke="#dd9a90" stroke-width="1.51496062992126" stroke-linejoin="round" stroke-linecap="round" /><path d="M30.06173228346458 77.19307086614174 A139.84251968503938 139.84251968503938 0 0 1 265.6031496062992 72.85795275590552" fill="none" stroke="#ffe6d7" stroke-width="2.3307086614173227" stroke-linejoin="round" stroke-linecap="round" opacity=".7"/><path d="M20.645669291338578 148.0 A129.35433070866142 129.35433070866142 0 1 0 279.35433070866145 148.0 A129.35433070866142 129.35433070866142 0 1 0 20.645669291338578 148.0Z" fill="url(#cream)" stroke="#f4c8b8" stroke-width="1.51496062992126" stroke-linejoin="round" stroke-linecap="round" /></g><g transform="translate(28.9360 26.4631) scale(0.945813)" id="icone"><path d="M128 34 C102 52 80 57 57 60 V132 C57 178 81 201 128 223 C175 201 199 178 199 132 V60 C176 57 154 52 128 34Z" fill="url(#cream)" stroke="url(#blackStroke)" stroke-width="13" stroke-linejoin="round" stroke-linecap="round" /><path d="M70 73 C91 70 111 62 128 52 C145 62 165 70 186 73" fill="none" stroke="#fffdf6" stroke-width="3" stroke-linejoin="round" stroke-linecap="round" opacity=".72"/><path d="M98 133 L121 156 L166 107" fill="none" stroke="#bd625e" stroke-width="17" stroke-linejoin="round" stroke-linecap="round" /><path d="M98 133 L121 156 L166 107" fill="none" stroke="url(#pinkStroke)" stroke-width="12" stroke-linejoin="round" stroke-linecap="round" /><path d="M98 130 L120 151 L163 105" fill="none" stroke="#ffc0b3" stroke-width="2.7" stroke-linejoin="round" stroke-linecap="round" opacity=".55"/></g></svg>